<?xml version="1.0" standalone="no"?>
<!DOCTYPE svg PUBLIC "-//W3C//DTD SVG 20010904//EN"
 "http://www.w3.org/TR/2001/REC-SVG-20010904/DTD/svg10.dtd">
<svg version="1.0" xmlns="http://www.w3.org/2000/svg"
 width="256.000000pt" height="256.000000pt" viewBox="0 0 256.000000 256.000000"
 preserveAspectRatio="xMidYMid meet">

<g transform="translate(0.000000,256.000000) scale(0.100000,-0.100000)"
fill="#000000" stroke="none">
<path d="M975 2546 c-34 -15 -60 -42 -69 -72 -4 -14 -32 -31 -84 -54 -376
-164 -634 -508 -684 -916 -10 -86 -13 -93 -36 -99 -70 -17 -102 -70 -102 -170
0 -75 16 -113 59 -144 29 -21 30 -21 1221 -21 1191 0 1192 0 1221 21 43 31 59
69 59 144 0 100 -32 153 -102 170 -23 6 -26 13 -36 99 -50 407 -308 752 -683
915 -60 26 -79 40 -90 64 -8 17 -27 40 -42 51 -27 20 -43 21 -315 23 -223 2
-294 0 -317 -11z m265 -556 c0 -469 0 -480 20 -490 14 -8 26 -8 40 0 20 10 20
21 20 490 l0 480 119 0 c87 0 122 -4 130 -13 7 -10 12 -145 13 -437 3 -390 4
-424 20 -434 13 -8 23 -8 35 0 17 10 18 42 21 393 1 209 5 381 7 381 21 0 197
-100 263 -150 225 -169 386 -454 408 -720 l7 -80 -1063 0 -1063 0 7 80 c22
266 183 551 408 720 66 50 242 150 263 150 2 0 6 -172 7 -381 3 -351 4 -383
20 -393 13 -8 23 -8 35 0 17 10 18 44 21 434 1 292 6 427 13 437 8 9 43 13
130 13 l119 0 0 -480z m1228 -743 c2 -42 -2 -74 -9 -83 -10 -12 -186 -14
-1178 -14 -894 0 -1170 3 -1179 12 -13 13 -17 140 -5 151 3 4 538 6 1187 5
l1181 -3 3 -68z"/>
<path d="M345 836 c-68 -30 -112 -87 -129 -168 l-6 -28 -93 0 c-59 0 -97 -4
-105 -12 -8 -8 -12 -67 -12 -199 0 -157 3 -190 16 -203 12 -12 38 -16 113 -16
l98 0 18 -41 c24 -53 83 -111 143 -140 43 -22 62 -24 235 -27 213 -4 294 8
394 58 71 36 152 105 204 176 24 33 47 54 59 54 12 0 35 -21 59 -54 48 -65
127 -135 192 -170 91 -50 183 -66 378 -66 97 0 194 5 216 11 90 24 162 92 201
187 l23 57 92 3 c51 1 99 8 106 14 18 14 19 378 1 396 -8 8 -47 12 -107 12
l-96 1 -25 52 c-17 35 -39 62 -68 82 l-44 30 -916 2 c-741 2 -923 0 -947 -11z
m1841 -82 c18 -9 43 -31 54 -49 18 -30 20 -49 20 -241 0 -229 -7 -259 -64
-316 -55 -54 -77 -58 -293 -58 -182 0 -203 2 -264 24 -82 29 -146 72 -196 132
-94 115 -106 124 -163 124 -57 0 -69 -9 -163 -124 -50 -60 -114 -103 -196
-132 -61 -22 -82 -24 -264 -24 -216 0 -238 4 -293 58 -57 57 -64 87 -64 316 0
192 2 211 20 241 42 68 -8 65 958 65 782 0 878 -2 908 -16z m284 -179 c0 -24
-3 -25 -60 -25 -57 0 -60 1 -60 25 0 24 3 25 60 25 57 0 60 -1 60 -25z m-2260
-45 c0 -18 -7 -20 -60 -20 -53 0 -60 2 -60 20 0 18 7 20 60 20 53 0 60 -2 60
-20z m2260 -125 l0 -65 -60 0 -60 0 0 65 0 65 60 0 60 0 0 -65z m-2260 -40 l0
-65 -60 0 -60 0 0 65 0 65 60 0 60 0 0 -65z"/>
<path d="M447 661 c-51 -33 -60 -57 -65 -167 -4 -85 -2 -108 12 -129 19 -29
38 -32 60 -9 12 12 16 38 16 112 0 53 5 104 10 112 8 13 57 16 311 20 273 5
303 7 313 23 8 12 8 22 0 35 -10 15 -38 17 -320 20 -287 2 -311 1 -337 -17z"/>
<path d="M1204 666 c-3 -8 -4 -25 -2 -38 3 -22 7 -23 78 -23 l75 0 0 35 0 35
-73 3 c-56 2 -74 0 -78 -12z"/>
</g>
</svg>
