<?xml version="1.0" standalone="no"?>
<!DOCTYPE svg PUBLIC "-//W3C//DTD SVG 20010904//EN"
 "http://www.w3.org/TR/2001/REC-SVG-20010904/DTD/svg10.dtd">
<svg version="1.0" xmlns="http://www.w3.org/2000/svg"
 width="256.000000pt" height="256.000000pt" viewBox="0 0 256.000000 256.000000"
 preserveAspectRatio="xMidYMid meet">

<g transform="translate(0.000000,256.000000) scale(0.100000,-0.100000)"
fill="#000000" stroke="none">
<path d="M1140 2464 c-177 -38 -348 -171 -429 -334 -44 -91 -71 -193 -71 -276
0 -28 -7 -65 -16 -83 -39 -79 -26 -169 34 -229 21 -21 53 -42 71 -48 31 -8 36
-15 50 -69 36 -128 123 -244 235 -309 l66 -39 0 -63 0 -63 -37 -10 c-364 -96
-499 -134 -534 -151 -59 -31 -121 -97 -155 -166 l-29 -59 -3 -228 c-3 -167 0
-232 8 -242 11 -13 143 -15 949 -15 715 0 940 3 949 12 9 9 12 71 12 219 0
175 -3 217 -19 268 -32 102 -106 185 -201 225 -19 8 -141 42 -270 76 -129 33
-243 63 -252 66 -15 4 -18 17 -18 68 l0 63 66 39 c112 66 205 190 238 320 11
43 16 50 46 58 19 6 51 27 72 48 60 60 73 150 34 229 -9 18 -16 55 -16 83 0
84 -27 186 -72 276 -129 257 -422 396 -708 334z m321 -96 c95 -35 148 -69 217
-138 83 -84 138 -196 157 -317 5 -35 4 -43 -8 -43 -32 0 -72 23 -201 115 -73
52 -137 95 -142 95 -5 0 -161 -45 -346 -99 -186 -55 -356 -102 -379 -106 l-41
-7 7 43 c29 191 143 349 308 428 45 22 105 44 132 50 81 16 220 6 296 -21z
m140 -464 l119 -85 0 -152 c0 -103 -5 -171 -15 -210 -46 -177 -179 -299 -360
-330 -221 -38 -446 118 -494 341 -6 29 -11 118 -11 197 l0 144 73 22 c378 113
535 158 550 158 10 1 72 -38 138 -85z m-841 -224 c0 -60 -4 -110 -8 -110 -5 0
-21 14 -38 31 -24 25 -29 39 -29 79 0 40 5 54 29 79 17 17 33 31 38 31 4 0 8
-49 8 -110z m1086 79 c24 -25 29 -39 29 -79 0 -40 -5 -54 -29 -79 -17 -17 -33
-31 -38 -31 -4 0 -8 50 -8 110 0 61 4 110 8 110 5 0 21 -14 38 -31z m-446
-785 c0 -46 5 -75 13 -82 7 -6 43 -18 80 -28 66 -16 67 -17 67 -49 0 -32 -3
-35 -57 -55 -145 -54 -301 -54 -446 0 -54 20 -57 23 -57 55 0 32 1 33 67 49
37 10 73 22 80 28 8 7 13 36 13 82 l0 71 120 0 120 0 0 -71z m-586 -186 c-4
-7 -36 -59 -71 -114 -35 -56 -63 -108 -63 -116 0 -21 15 -31 88 -60 35 -14 62
-29 61 -34 -2 -5 -36 -35 -76 -67 -43 -35 -73 -66 -73 -77 0 -11 34 -46 80
-85 44 -37 80 -69 80 -71 0 -2 -99 -4 -220 -4 l-220 0 0 180 c0 212 12 259 82
327 56 53 72 61 208 99 135 38 133 38 124 22z m102 -255 c-7 -7 -131 42 -130
51 1 4 31 54 65 110 l64 103 3 -130 c1 -71 0 -132 -2 -134z m855 45 c-7 -7
-111 -48 -123 -48 -5 0 -8 62 -8 137 l0 137 69 -109 c38 -61 66 -113 62 -117z
m104 186 c127 -33 163 -52 214 -110 61 -69 71 -116 71 -321 l0 -173 -220 0
c-121 0 -220 2 -220 4 0 2 36 34 80 70 50 41 80 74 80 86 0 12 -30 44 -81 85
-66 53 -78 66 -62 72 118 42 143 56 143 81 0 8 -28 60 -63 116 -35 55 -67 107
-71 115 -6 10 -4 12 10 7 11 -3 64 -17 119 -32z m-780 -102 c115 -32 336 -20
448 23 16 7 17 -10 17 -259 l0 -266 -280 0 -280 0 0 266 c0 249 1 266 18 259
9 -3 44 -14 77 -23z m-175 -348 c0 -120 9 -116 -83 -40 -26 22 -46 43 -45 47
4 10 111 98 121 98 4 1 7 -47 7 -105z m791 59 c32 -27 59 -51 59 -54 0 -3 -21
-23 -47 -45 -92 -76 -83 -80 -83 40 0 58 3 106 6 106 4 0 33 -21 65 -47z"/>
<path d="M995 1751 c-30 -13 -63 -52 -70 -83 -7 -27 -6 -28 32 -28 27 0 42 6
51 20 7 11 21 20 32 20 11 0 25 -9 32 -20 9 -14 24 -20 51 -20 38 0 39 1 32
28 -15 63 -102 109 -160 83z"/>
<path d="M1475 1751 c-30 -13 -63 -52 -70 -83 -7 -27 -6 -28 32 -28 27 0 42 6
51 20 7 11 21 20 32 20 11 0 25 -9 32 -20 9 -14 24 -20 51 -20 38 0 39 1 32
28 -15 63 -102 109 -160 83z"/>
<path d="M1080 1387 c0 -23 31 -57 73 -80 34 -17 58 -22 127 -22 69 0 93 5
127 22 42 23 73 57 73 80 0 19 -66 16 -97 -4 -20 -13 -48 -18 -103 -18 -55 0
-83 5 -103 18 -31 20 -97 23 -97 4z"/>
</g>
</svg>
